<mxfile host="Electron" modified="2024-01-11T08:53:39.914Z" agent="Mozilla/5.0 (Macintosh; Intel Mac OS X 10_15_7) AppleWebKit/537.36 (KHTML, like Gecko) draw.io/22.0.3 Chrome/114.0.5735.289 Electron/25.8.4 Safari/537.36" etag="7eqwUEiXHtQIkuejGcLL" version="22.0.3" type="device">
  <diagram name="Page-1" id="VoNgSi_gitcKq5cCypSL">
    <mxGraphModel dx="1004" dy="640" grid="1" gridSize="10" guides="1" tooltips="1" connect="1" arrows="1" fold="1" page="1" pageScale="1" pageWidth="827" pageHeight="1169" math="0" shadow="0">
      <root>
        <mxCell id="0" />
        <mxCell id="1" parent="0" />
        <mxCell id="GMFnx8FPMZsGpVDdC7YN-1" value="Start" style="strokeWidth=2;html=1;shape=mxgraph.flowchart.start_1;whiteSpace=wrap;" vertex="1" parent="1">
          <mxGeometry x="360" y="52" width="100" height="60" as="geometry" />
        </mxCell>
        <mxCell id="GMFnx8FPMZsGpVDdC7YN-2" value="Slutt" style="strokeWidth=2;html=1;shape=mxgraph.flowchart.start_1;whiteSpace=wrap;" vertex="1" parent="1">
          <mxGeometry x="360" y="500" width="100" height="60" as="geometry" />
        </mxCell>
        <mxCell id="GMFnx8FPMZsGpVDdC7YN-3" value="Hent inn alder" style="shape=parallelogram;html=1;strokeWidth=2;perimeter=parallelogramPerimeter;whiteSpace=wrap;rounded=1;arcSize=12;size=0.23;" vertex="1" parent="1">
          <mxGeometry x="325" y="140" width="170" height="60" as="geometry" />
        </mxCell>
        <mxCell id="GMFnx8FPMZsGpVDdC7YN-4" value="alder &amp;gt;= 18" style="strokeWidth=2;html=1;shape=mxgraph.flowchart.decision;whiteSpace=wrap;" vertex="1" parent="1">
          <mxGeometry x="360" y="220" width="100" height="100" as="geometry" />
        </mxCell>
        <mxCell id="GMFnx8FPMZsGpVDdC7YN-5" value="Print &quot;Du kan ta lappen&quot;" style="shape=parallelogram;html=1;strokeWidth=2;perimeter=parallelogramPerimeter;whiteSpace=wrap;rounded=1;arcSize=12;size=0.23;" vertex="1" parent="1">
          <mxGeometry x="312.5" y="350" width="195" height="60" as="geometry" />
        </mxCell>
        <mxCell id="GMFnx8FPMZsGpVDdC7YN-6" value="Print &quot;Du kan ikke ta lappen&quot;" style="shape=parallelogram;html=1;strokeWidth=2;perimeter=parallelogramPerimeter;whiteSpace=wrap;rounded=1;arcSize=12;size=0.23;" vertex="1" parent="1">
          <mxGeometry x="570" y="350" width="205" height="60" as="geometry" />
        </mxCell>
        <mxCell id="GMFnx8FPMZsGpVDdC7YN-7" value="" style="endArrow=none;html=1;rounded=0;entryX=0.5;entryY=1;entryDx=0;entryDy=0;entryPerimeter=0;exitX=0.5;exitY=0;exitDx=0;exitDy=0;" edge="1" parent="1" source="GMFnx8FPMZsGpVDdC7YN-3" target="GMFnx8FPMZsGpVDdC7YN-1">
          <mxGeometry width="50" height="50" relative="1" as="geometry">
            <mxPoint x="410" y="120" as="sourcePoint" />
            <mxPoint x="410" y="120" as="targetPoint" />
          </mxGeometry>
        </mxCell>
        <mxCell id="GMFnx8FPMZsGpVDdC7YN-8" value="" style="endArrow=none;html=1;rounded=0;entryX=0.5;entryY=1;entryDx=0;entryDy=0;exitX=0.5;exitY=0;exitDx=0;exitDy=0;exitPerimeter=0;" edge="1" parent="1" source="GMFnx8FPMZsGpVDdC7YN-4" target="GMFnx8FPMZsGpVDdC7YN-3">
          <mxGeometry width="50" height="50" relative="1" as="geometry">
            <mxPoint x="470" y="220" as="sourcePoint" />
            <mxPoint x="420" y="130" as="targetPoint" />
            <Array as="points" />
          </mxGeometry>
        </mxCell>
        <mxCell id="GMFnx8FPMZsGpVDdC7YN-9" value="" style="endArrow=none;html=1;rounded=0;entryX=0.5;entryY=1;entryDx=0;entryDy=0;exitX=0.5;exitY=0;exitDx=0;exitDy=0;entryPerimeter=0;" edge="1" parent="1" source="GMFnx8FPMZsGpVDdC7YN-5" target="GMFnx8FPMZsGpVDdC7YN-4">
          <mxGeometry width="50" height="50" relative="1" as="geometry">
            <mxPoint x="420" y="230" as="sourcePoint" />
            <mxPoint x="415" y="210" as="targetPoint" />
            <Array as="points" />
          </mxGeometry>
        </mxCell>
        <mxCell id="GMFnx8FPMZsGpVDdC7YN-10" value="" style="endArrow=none;html=1;rounded=0;entryX=1;entryY=0.5;entryDx=0;entryDy=0;exitX=0.5;exitY=0;exitDx=0;exitDy=0;entryPerimeter=0;" edge="1" parent="1" source="GMFnx8FPMZsGpVDdC7YN-6" target="GMFnx8FPMZsGpVDdC7YN-4">
          <mxGeometry width="50" height="50" relative="1" as="geometry">
            <mxPoint x="433" y="360" as="sourcePoint" />
            <mxPoint x="420" y="330" as="targetPoint" />
            <Array as="points">
              <mxPoint x="673" y="270" />
            </Array>
          </mxGeometry>
        </mxCell>
        <mxCell id="GMFnx8FPMZsGpVDdC7YN-11" value="Nei" style="text;html=1;align=center;verticalAlign=middle;resizable=0;points=[];autosize=1;strokeColor=none;fillColor=none;" vertex="1" parent="1">
          <mxGeometry x="458" y="245" width="40" height="30" as="geometry" />
        </mxCell>
        <mxCell id="GMFnx8FPMZsGpVDdC7YN-12" value="Ja" style="text;html=1;align=center;verticalAlign=middle;resizable=0;points=[];autosize=1;strokeColor=none;fillColor=none;" vertex="1" parent="1">
          <mxGeometry x="380" y="310" width="40" height="30" as="geometry" />
        </mxCell>
        <mxCell id="GMFnx8FPMZsGpVDdC7YN-13" value="" style="endArrow=none;html=1;rounded=0;entryX=0.5;entryY=1;entryDx=0;entryDy=0;exitX=0.5;exitY=0;exitDx=0;exitDy=0;exitPerimeter=0;" edge="1" parent="1" source="GMFnx8FPMZsGpVDdC7YN-2" target="GMFnx8FPMZsGpVDdC7YN-5">
          <mxGeometry width="50" height="50" relative="1" as="geometry">
            <mxPoint x="655.5" y="530" as="sourcePoint" />
            <mxPoint x="442.5" y="450" as="targetPoint" />
            <Array as="points" />
          </mxGeometry>
        </mxCell>
        <mxCell id="GMFnx8FPMZsGpVDdC7YN-14" value="" style="endArrow=none;html=1;rounded=0;entryX=0.5;entryY=1;entryDx=0;entryDy=0;" edge="1" parent="1" target="GMFnx8FPMZsGpVDdC7YN-6">
          <mxGeometry width="50" height="50" relative="1" as="geometry">
            <mxPoint x="410" y="470" as="sourcePoint" />
            <mxPoint x="680" y="430" as="targetPoint" />
            <Array as="points">
              <mxPoint x="673" y="470" />
            </Array>
          </mxGeometry>
        </mxCell>
      </root>
    </mxGraphModel>
  </diagram>
</mxfile>
